# xmcd
# Track frame offsets:
# 150
# 24364
# 45352
# 64209
# 82529
# 103237
# 118489
# 136019
# 149982
# 166269
# 183033
#
# Disc length: 2721 seconds
# Revision: 0
# Processed by: cddbd v1.5.2PL0 Copyright (c) Steve Scherf et al.
# Submitted via: VisiTrax 2.11.2.271 - For more info visit www.synapsa.com
#
DISCID=8f0a9f0b
DTITLE=Mikael Järlestrand - Du lyfter mig
DYEAR=2012
DGENRE=Gospel
TTITLE0=Syndare frälst av nåd
TTITLE1=Om det inte är sant
TTITLE2=Du lyfter mig
TTITLE3=Vägen hem
TTITLE4=Vad gränslös kärlek
TTITLE5=Hur skall inte himlen vara då
TTITLE6=Vem kunde ana och tro
TTITLE7=Mitt i livet
TTITLE8=Ingen som Jesus
TTITLE9=Det finns änglar överallt
TTITLE10=Hem det bär
EXTD=
EXTT0=
EXTT1=
EXTT2=
EXTT3=
EXTT4=
EXTT5=
EXTT6=
EXTT7=
EXTT8=
EXTT9=
EXTT10=
PLAYORDER=
